<?xml version="1.0" encoding="UTF-8" standalone="no"?>
<svg
   xmlns:dc="http://purl.org/dc/elements/1.1/"
   xmlns:cc="http://creativecommons.org/ns#"
   xmlns:rdf="http://www.w3.org/1999/02/22-rdf-syntax-ns#"
   xmlns:svg="http://www.w3.org/2000/svg"
   xmlns="http://www.w3.org/2000/svg"
   viewBox="0 0 1051.3066 352"
   height="352"
   width="1051.3066"
   xml:space="preserve"
   id="svg2"
   version="1.1"><metadata
     id="metadata8"><rdf:RDF><cc:Work
         rdf:about=""><dc:format>image/svg+xml</dc:format><dc:type
           rdf:resource="http://purl.org/dc/dcmitype/StillImage" /></cc:Work></rdf:RDF></metadata><defs
     id="defs6" /><g
     transform="matrix(1.3333333,0,0,-1.3333333,0,352)"
     id="g10"><g
       transform="scale(0.1)"
       id="g12"><path
         id="path14"
         style="fill:#ffffff;fill-opacity:1;fill-rule:nonzero;stroke:none"
         d="m 5149.4,590.52 h 252.71 V 1693.03 H 5149.4 Z m 2342.86,1125.52 c -171.25,0 -273.54,-89.8 -344.56,-194.19 v 171.18 H 6895.06 V 590.52 h 252.64 v 622.31 c 0,171.21 102.33,273.51 248.52,273.51 150.37,0 235.95,-98.11 235.95,-269.33 V 590.52 h 252.67 v 701.63 c 0,256.83 -144.09,423.89 -392.58,423.89 z M 6155.9,784.711 c -196.32,0 -336.22,160.809 -336.22,357.099 0,194.16 129.46,352.91 332.03,352.91 198.35,0 338.28,-160.78 338.28,-357.1 0,-194.19 -129.49,-352.909 -334.09,-352.909 z m 0,931.329 c -338.28,0 -588.89,-260.98 -588.89,-578.42 0,-315.268 248.48,-572.14 584.7,-572.14 340.41,0 590.99,261.02 590.99,576.33 0,317.37 -248.55,574.23 -586.8,574.23 z M 3027.98,882.891 2731.47,1693.03 H 2460 L 2913.15,582.211 h 227.6 L 3591.79,1693.03 H 3326.6 Z m 1611.99,359.119 c -129.49,41.83 -248.55,75.21 -248.55,154.53 v 4.19 c 0,64.73 56.39,110.68 154.53,110.68 47.87,0 101.45,-10.98 156.83,-30.41 l -0.04,0.14 c 0,0 0.55,-0.27 1.59,-0.75 4.76,-1.69 9.6,-3.58 14.43,-5.4 39.96,-12.64 147.77,-29.53 238.61,111.55 -116.96,77.3 -267.26,125.34 -405.17,125.34 -219.22,0 -392.54,-127.36 -392.54,-336.22 v -4.19 c 0,-210.88 181.66,-277.7 344.53,-323.65 129.5,-39.66 246.46,-68.879 246.46,-154.492 v -4.156 c 0,-73.113 -62.67,-119.051 -171.25,-119.051 -72.2,0 -151.26,19.051 -230.04,56.18 -22.67,9.558 -140.61,49.898 -241.45,-93.512 137.4,-107.301 309.53,-163.148 465.24,-163.148 229.63,0 409.26,114.8 409.26,346.66 v 4.16 c 0,198.339 -181.66,271.449 -342.44,321.549 z M 3716.99,590.52 h 252.67 V 1693.03 H 3716.99 V 590.52" /><path
         id="path16"
         style="fill:#ffffff;fill-opacity:1;fill-rule:nonzero;stroke:none"
         d="m 1958.62,604.5 c -163.64,0 -241.89,97.18 -241.89,230.039 0,37.91 4.73,78.262 16.58,118.582 l 78.28,279.849 c 9.48,30.84 11.86,59.27 11.86,85.38 0,90.09 -54.55,144.66 -142.3,144.66 -111.48,0 -185,-80.01 -222.93,-234.17 L 1306.42,620 h -265.61 l 47.67,191.328 c -78.07,-128.25 -186.5,-207.687 -320.261,-207.687 -161.274,0 -237.168,92.91 -237.168,232.859 0,35.52 4.758,79.059 14.234,119.379 L 666.234,1450 H 478.887 l 56.922,210 H 986.414 L 808.527,954.379 c -11.863,-45.098 -16.601,-82.5 -16.601,-108.539 0,-45.129 22.207,-58.32 56.937,-66.149 21.145,-4.742 189.687,-1.429 281.457,202.528 L 1247.14,1450 h -189.73 l 56.92,210 h 405.54 l -52.16,-238.42 c 71.13,132.83 213.44,259.04 353.36,259.04 149.41,0 272.75,-106.44 272.75,-310.4 0,-52.15 -7.12,-108.93 -26.09,-172.95 l -75.91,-272.649 c -7.09,-28.519 -11.86,-52.211 -11.86,-73.551 0,-47.41 18.98,-71.109 54.57,-71.109 35.56,0 80.63,26.141 132.81,170.738 L 2271.68,910.41 C 2210.02,694.578 2098.55,604.5 1958.62,604.5 Z M 879.676,2124.67 c 87.769,0 161.274,-68.77 161.274,-158.86 0,-90.15 -73.505,-158.93 -161.274,-158.93 -87.75,0 -161.254,68.78 -161.254,158.93 0,90.09 73.504,158.86 161.254,158.86 z M 2640,2400.68 C 2640,2532.86 2532.85,2640 2400.68,2640 H 239.316 C 107.145,2640 0,2532.86 0,2400.68 V 239.32 C 0,107.148 107.145,0 239.316,0 H 2400.68 C 2532.85,0 2640,107.148 2640,239.32 v 2161.36" /></g></g></svg>